Coordinates
version=1
nRows=17
nColumns=24
inDegrees=yes

Units are S.I. units (second, meters, Newtons, ...)
Angles are in degrees.

endheader
time	pelvis_tilt	pelvis_list	pelvis_rotation	pelvis_tx	pelvis_ty	pelvis_tz	hip_flexion_r	hip_adduction_r	hip_rotation_r	knee_angle_r	ankle_angle_r	subtalar_angle_r	mtp_angle_r	hip_flexion_l	hip_adduction_l	hip_rotation_l	knee_angle_l	ankle_angle_l	subtalar_angle_l	mtp_angle_l	lumbar_extension	lumbar_bending	lumbar_rotation
      1.40850000	     -2.87358431	     -4.01560456	    -15.13677359	      0.98210058	      0.96798419	      0.32762526	    -22.19333137	      3.17868385	     12.10893482	     -9.02942847	     15.28811582	      2.14054862	      7.70240919	     35.01778168	     -9.94537572	     -7.00247249	     -5.08276671	     12.68778774	     -9.20703171	     -2.56020939	      1.80058063	      2.79459468	     12.90417099
      1.41266667	     -2.96609550	     -3.91003661	    -15.31926584	      0.98876235	      0.96664847	      0.32747712	    -22.30126129	      2.91581204	     12.00641020	     -9.29676321	     15.14969178	      2.37303762	      7.95412727	     35.13023301	     -9.90151578	     -6.82285307	     -5.68287658	     12.71053218	     -9.57871738	     -2.40084514	      2.00433922	      2.72738494	     13.14776270
      1.41683333	     -3.00279503	     -3.78422961	    -15.48100880	      0.99551294	      0.96541065	      0.32732008	    -22.49111546	      2.62637130	     11.95264178	     -9.50239738	     14.88760661	      2.44233679	      7.99624347	     35.18567616	     -9.82195253	     -6.76656393	     -6.30432400	     12.78315905	     -9.75729379	     -2.36554460	      2.12998744	      2.61342041	     13.16580805
      1.42100000	     -3.09770117	     -3.65291133	    -15.62078521	      1.00233255	      0.96408736	      0.32711191	    -22.58295666	      2.35407865	     11.77442513	     -9.78621096	     14.68106182	      2.66481708	      8.32320252	     35.29895664	     -9.72470214	     -6.59851350	     -6.90838438	     12.68723085	    -10.11522348	     -2.14810639	      2.40629827	      2.48619096	     13.36456507
      1.42516667	     -3.15857038	     -3.51074730	    -15.77426330	      1.00915480	      0.96285367	      0.32687451	    -22.68054948	      2.05525202	     11.59560259	    -10.11435650	     14.44137308	      2.89108863	      9.37465784	     35.35415156	     -9.60340461	     -6.39803787	     -7.47895302	     12.47172431	    -10.70133556	     -1.42641508	      2.59066117	      2.36799698	     13.44708066
      1.42933333	     -3.18441135	     -3.36838439	    -15.88587529	      1.01605135	      0.96168450	      0.32662075	    -22.84439802	      1.76907456	     11.45387507	    -10.37964552	     14.05340035	      2.89426719	      9.43779592	     35.41706672	     -9.47587896	     -6.42202331	     -8.14299762	     12.40337150	    -10.77146804	     -1.37649108	      2.75377978	      2.22284529	     13.45103971
      1.43350000	     -3.24448994	     -3.20897282	    -15.98500096	      1.02298171	      0.96047318	      0.32631682	    -22.94190804	      1.47948120	     11.26494031	    -10.69049562	     13.63499606	      2.93489891	     12.70891645	     35.51863360	     -9.32299545	     -6.37487082	     -8.78742396	     12.06667873	    -11.09582116	      0.85118247	      2.95941853	      2.07031955	     13.45724297
      1.43766667	     -3.29690095	     -3.03925405	    -16.06175305	      1.02998515	      0.95930575	      0.32598414	    -23.03734791	      1.18946986	     11.04143537	    -11.02471736	     13.23035754	      2.97527630	     12.72113765	     35.62928636	     -9.15072824	     -6.39233868	     -9.47617678	     11.86869666	    -11.22291960	      0.86089925	      3.17471125	      1.89952864	     13.50275768
      1.44183333	     -3.38988749	     -2.83514599	    -16.12542416	      1.03702685	      0.95809714	      0.32561806	    -23.05940860	      0.88301935	     10.78695954	    -11.40799349	     12.88099680	      3.11186156	     12.81234024	     35.78874142	     -8.94017040	     -6.35471589	    -10.14885544	     11.48208421	    -11.50980677	      0.91716266	      3.45891655	      1.68205067	     13.57747113
      1.44600000	     -3.42557400	     -2.65679437	    -16.15686420	      1.04407079	      0.95700283	      0.32517880	    -23.12623767	      0.60006952	     10.46772934	    -11.82239937	     12.40655800	      3.13959162	     12.86697127	     35.91485790	     -8.72879632	     -6.36176924	    -10.87476333	     11.10102692	    -11.66760516	      0.95325654	      3.66935219	      1.51031674	     13.58127583
      1.45016667	     -3.52968597	     -2.43085659	    -16.17343517	      1.05113655	      0.95582744	      0.32466927	    -23.07223437	      0.29391399	     10.08797256	    -12.31907160	     12.05772167	      3.31073238	     13.17480071	     36.11529019	     -8.45478278	     -6.20068909	    -11.57090386	     10.50758798	    -12.23311740	      1.13924063	      3.96783391	      1.28821667	     13.56358913
      1.45433333	     -3.50009176	     -2.19140385	    -16.12755898	      1.05830933	      0.95486955	      0.32412263	    -23.19629906	     -0.03863649	      9.67399293	    -12.71558733	     11.44313839	      3.28428764	     16.11387631	     36.19521454	     -8.11927000	     -6.13942459	    -12.28562048	      9.85748197	    -12.55213203	      2.86085690	      4.10135741	      0.98147235	     13.56040788
      1.45850000	     -3.63289771	     -1.97806317	    -16.10083374	      1.06539915	      0.95372160	      0.32355416	    -23.08657593	     -0.29739138	      9.29175451	    -13.25748628	     10.91107696	      3.33631155	     16.20572502	     36.50955853	     -7.86834348	     -6.13332009	    -13.14332764	      9.37313963	    -12.67783493	      2.89647708	      4.44205898	      0.79260240	     13.47400734
      1.46266667	     -3.68960892	     -1.71872637	    -16.03210230	      1.07257824	      0.95271532	      0.32292411	    -23.04664544	     -0.61072448	      8.81776022	    -13.79533960	     10.34997635	      3.37709379	     16.39894393	     36.74470760	     -7.52436369	     -6.07884613	    -13.97927117	      8.76657061	    -12.93687953	      2.97930408	      4.70694402	      0.49811341	     13.38643238
      1.46683333	     -3.74023472	     -1.47809112	    -15.91490670	      1.07973004	      0.95174690	      0.32219259	    -23.00030855	     -0.88961011	      8.30028383	    -14.36177798	      9.73047981	      3.44518039	     16.83331307	     37.00586481	     -7.16399027	     -5.94084679	    -14.86721713	      8.12269215	    -13.18985823	      3.15600223	      4.93458946	      0.22475759	     13.25789102
      1.47100000	     -3.70045220	     -1.18218495	    -15.75777704	      1.08697840	      0.95093098	      0.32142343	    -23.04822213	     -1.23433622	      7.70414987	    -14.89560101	      8.99160747	      3.38957842	     19.37155233	     37.18519885	     -6.71115264	     -5.84052940	    -15.76723054	      7.51251911	    -13.44157295	      4.14504602	      5.09557722	     -0.16913770	     13.20205723
      1.47516667	     -3.78409130	     -0.92682151	    -15.62435934	      1.09415918	      0.94999277	      0.32066803	    -22.92259283	     -1.50595336	      7.18041943	    -15.53251402	      8.26156678	      3.35272138	     19.46494754	     37.55277720	     -6.36317415	     -5.84843410	    -16.81557278	      7.08169733	    -13.38659451	      4.16458793	      5.39324625	     -0.44959843	     13.07847375
